<?xml version="1.0" encoding="UTF-8"?>
<svg version="1.1" xmlns="http://www.w3.org/2000/svg" width="882" height="714">
<path d="M0 0 C291.06 0 582.12 0 882 0 C882 235.62 882 471.24 882 714 C590.94 714 299.88 714 0 714 C0 478.38 0 242.76 0 0 Z " fill="#FEFEFE" transform="translate(0,0)"/>
<path d="M0 0 C0.9075 0.165 1.815 0.33 2.75 0.5 C5.28702019 0.91853083 7.34742734 0.96613859 9.92578125 0.71484375 C13.14809632 0.42993171 15.82448606 0.36223988 19 1 C25.86138555 6.88522966 28.28748666 19.57884027 31 28 C31.309375 28.95519531 31.61875 29.91039062 31.9375 30.89453125 C32.66904972 33.25301707 33.34692888 35.61867971 34 38 C34.23203125 38.81210937 34.4640625 39.62421875 34.703125 40.4609375 C35.55530713 43.62489031 36.28557082 46.80191845 37 50 C37.17208984 50.72654785 37.34417969 51.4530957 37.52148438 52.20166016 C41.41631519 69.07584382 46.7019883 95.23681714 39.78564453 111.93115234 C36.45299103 117.13782586 32.01778278 120.52156868 27 124 C25.07661623 125.63797843 23.15921564 127.28302906 21.25 128.9375 C19.50614179 130.29956677 17.75622258 131.65391323 16 133 C14.16456162 134.47655378 12.33115645 135.95563929 10.5 137.4375 C1.56457906 144.61774897 -6.86856916 143.83854121 -17.95458984 142.6953125 C-38.06698913 140.17684564 -57.45752707 135.23196856 -76 127 C-77.01223633 126.55551514 -77.01223633 126.55551514 -78.04492188 126.10205078 C-97.77964638 117.3627754 -114.43325996 105.79474613 -131 92 C-130.60167969 90.91332031 -130.60167969 90.91332031 -130.1953125 89.8046875 C-129.84210938 88.83789062 -129.48890625 87.87109375 -129.125 86.875 C-128.77695312 85.92367187 -128.42890625 84.97234375 -128.0703125 83.9921875 C-126.89021231 81.02287566 -126.89021231 81.02287566 -126.578125 77.828125 C-125 75 -125 75 -122.78662109 74.02978516 C-119.75000885 73.17868949 -116.71500391 72.50511935 -113.625 71.875 C-111.42377572 71.37679583 -109.22324212 70.87552945 -107.0234375 70.37109375 C-105.4470752 70.01893799 -105.4470752 70.01893799 -103.83886719 69.65966797 C-98.75187234 68.47760226 -93.8724984 66.86432484 -89 65 C-87.6078125 64.46826172 -87.6078125 64.46826172 -86.1875 63.92578125 C-53.46347797 50.82746924 -20.40318 29.29483821 0 0 Z " fill="#23568E" transform="translate(530,234)"/>
<path d="M0 0 C6.17232922 1.15922427 11.67489047 2.87779426 17.375 5.5 C18.14247559 5.84893311 18.90995117 6.19786621 19.70068359 6.55737305 C40.06438383 15.94663641 58.26175974 27.04363944 75 42 C75.55268555 42.49097168 76.10537109 42.98194336 76.67480469 43.48779297 C89.84552915 55.22592564 89.84552915 55.22592564 90.2578125 59.9609375 C90.19207031 61.65089844 90.19207031 61.65089844 90.125 63.375 C89.98849542 67.25333587 89.94866542 70.71290663 90.6328125 74.5390625 C92.12109358 82.88473994 92.12109358 82.88473994 90.046875 86.79833984 C87.31579179 90.69793049 84.04971316 94.05730692 80.65332031 97.37890625 C79.13917869 98.86353419 77.684779 100.3837771 76.2421875 101.9375 C48.83432352 130.73621081 9.93757312 150.86353161 -29 158 C-29.42410156 157.46890625 -29.84820312 156.9378125 -30.28515625 156.390625 C-34.16455465 151.71829462 -37.54251191 148.67305539 -43 146 C-43 145.34 -43 144.68 -43 144 C-43.66 144 -44.32 144 -45 144 C-43.60049891 111.84830393 -38.33265321 77.13074011 -24.3125 47.83081055 C-23.03305391 45.07129093 -21.88361054 42.28698079 -20.75 39.46484375 C-18.01555459 32.86723463 -14.82422546 26.56679965 -11.5 20.25 C-10.66662109 18.64318359 -10.66662109 18.64318359 -9.81640625 17.00390625 C-6.76695215 11.17047993 -3.57716566 5.52592008 0 0 Z " fill="#23568E" transform="translate(427,131)"/>
<path d="M0 0 C-0.08564209 0.57854736 -0.17128418 1.15709473 -0.25952148 1.75317383 C-0.65529858 4.43916681 -1.04641257 7.12582034 -1.4375 9.8125 C-1.63956055 11.17665039 -1.63956055 11.17665039 -1.84570312 12.56835938 C-7.83403454 53.90245181 -2.53206258 95.12817335 15.6262207 132.82373047 C18.76090481 139.39386242 18.76090481 139.39386242 19 142 C16.8125 144.375 16.8125 144.375 14 147 C11.69275987 150.23013618 9.73764471 153.44050752 8 157 C-11.19199911 156.15453748 -30.81347598 150.15749282 -48.375 142.546875 C-51.97319658 140.95414417 -51.97319658 140.95414417 -55.6875 139.765625 C-63.89972611 136.50273159 -63.89972611 136.50273159 -65.92626953 131.89306641 C-67.68943153 126.04049475 -68.4070657 120.0652726 -69 114 C-69.09442383 113.23300781 -69.18884766 112.46601563 -69.28613281 111.67578125 C-71.56911223 92.2502885 -71.25262558 71.11028356 -67 52 C-66.79600586 51.07928711 -66.59201172 50.15857422 -66.38183594 49.20996094 C-64.82554173 42.39805893 -62.99526943 35.69521055 -61 29 C-60.76361816 28.16146484 -60.52723633 27.32292969 -60.28369141 26.45898438 C-58.03738512 18.73681801 -55.88009027 12.45433039 -48.71289062 8.19580078 C-45.55216298 6.57219317 -42.32741167 5.23974481 -39 4 C-37.44732422 3.38125 -37.44732422 3.38125 -35.86328125 2.75 C-33.26049011 1.76260922 -30.64343777 0.87118143 -28 0 C-26.62235082 -0.51378507 -25.2471245 -1.03413772 -23.875 -1.5625 C-23.23949219 -1.789375 -22.60398437 -2.01625 -21.94921875 -2.25 C-19.94391756 -2.98432832 -19.94391756 -2.98432832 -17.89453125 -4.0625 C-10.6219524 -7.35768617 -6.25934331 -4.24699369 0 0 Z " fill="#23568E" transform="translate(317,135)"/>
<path d="M0 0 C11.22 0 22.44 0 34 0 C36.33550284 6.66591437 38.66924344 13.33242638 41 20 C41.51388275 21.46962189 41.51388275 21.46962189 42.03814697 22.96893311 C46.40522846 35.46537419 50.73752977 47.96827809 54.828125 60.55859375 C55.10914063 61.41839844 55.39015625 62.27820313 55.6796875 63.1640625 C56.03135986 64.25388428 56.03135986 64.25388428 56.39013672 65.36572266 C56.87683126 67.01525255 56.87683126 67.01525255 58 68 C58.24167908 67.2955777 58.48335815 66.5911554 58.73236084 65.86538696 C61.02431229 59.18650245 63.31871196 52.50846507 65.61577988 45.83133888 C66.79628499 42.39956851 67.97588223 38.96749197 69.15332031 35.53466797 C70.29228562 32.21412497 71.43374577 28.89444885 72.57685089 25.57532883 C73.21875684 23.70946079 73.85815863 21.84273185 74.49749756 19.97598267 C75.09766693 18.23531021 75.09766693 18.23531021 75.70996094 16.45947266 C76.05637634 15.451315 76.40279175 14.44315735 76.75970459 13.40444946 C78.4019062 8.8968198 80.21827084 4.4543229 82 0 C93.22 0 104.44 0 116 0 C117.02601399 12.81384439 118.05185534 25.62770257 119.07739925 38.44158459 C119.55369048 44.39262415 120.03005509 50.34365782 120.5065918 56.29467773 C120.96712684 62.04590274 121.42746338 67.7971436 121.8876667 73.54839516 C122.06260788 75.73424143 122.2376186 77.92008214 122.41270256 80.10591698 C123.29083078 91.06945446 124.1655171 102.03304032 125 113 C117.08 113 109.16 113 101 113 C100.82871582 111.01339355 100.65743164 109.02678711 100.48095703 106.97998047 C99.90978169 100.3620328 99.33427113 93.74446706 98.75671577 87.12707329 C98.40721889 83.12118475 98.05911183 79.11518625 97.71435547 75.10888672 C97.38060998 71.23117373 97.04298606 67.35381503 96.70284653 63.47665787 C96.57474935 62.00907118 96.44797076 60.5413687 96.32263565 59.07354355 C95.51772556 49.66001056 94.44111297 40.33835255 93 31 C92.66396255 32.01255356 92.32792511 33.02510712 91.98170471 34.06834412 C88.82116841 43.5904203 85.65749872 53.11145029 82.49072361 62.63145351 C80.86258748 67.52631843 79.23557444 72.42155079 77.61108398 77.31762695 C76.04459723 82.03874899 74.4752181 86.75890022 72.90379143 91.4783802 C72.30347572 93.28303508 71.70421975 95.08804283 71.10601997 96.89340019 C70.27079331 99.41350631 69.43187581 101.93235423 68.59204102 104.45092773 C68.34316635 105.20474228 68.09429169 105.95855682 67.83787537 106.73521423 C66.11405216 111.88594784 66.11405216 111.88594784 65 113 C62.46950598 113.07313567 59.96695163 113.09247527 57.4375 113.0625 C56.37112305 113.05573242 56.37112305 113.05573242 55.28320312 113.04882812 C53.52209987 113.03700864 51.76103964 113.01907263 50 113 C47.06961112 104.47175465 44.13982023 95.94330415 41.21076584 87.41460037 C39.85027003 83.45322222 38.48957817 79.49191164 37.12841797 75.53076172 C35.8116976 71.69891282 34.49551872 67.86687831 33.17969513 64.03472137 C32.68079655 62.58204448 32.18171188 61.12943149 31.68242645 59.67688751 C30.5349358 56.33837709 29.38956792 52.99918568 28.25036621 49.65783691 C27.43268024 47.26576818 26.60753884 44.87623165 25.77404785 42.48962402 C25.40678589 41.42409302 25.03952393 40.35856201 24.66113281 39.26074219 C24.33880676 38.33622253 24.01648071 37.41170288 23.68438721 36.45916748 C23 34 23 34 23 30 C22.34 30 21.68 30 21 30 C21.02707031 31.30050293 21.05414063 32.60100586 21.08203125 33.94091797 C21.07798471 41.63726493 20.3387346 49.28312576 19.6875 56.9453125 C19.55261982 58.56766838 19.4181044 60.19005462 19.28393555 61.81246948 C18.93246064 66.05084619 18.57608139 70.28879625 18.21862793 74.52667236 C17.85368705 78.86388573 17.49345677 83.20149013 17.1328125 87.5390625 C16.4264464 96.02642933 15.71445526 104.51331027 15 113 C7.08 113 -0.84 113 -9 113 C-8.32736291 95.24570241 -6.84812284 77.60310641 -5.26654053 59.91290283 C-4.92798412 56.11667581 -4.59403915 52.32004363 -4.25976562 48.5234375 C-3.74583931 42.6915363 -3.22955499 36.85984951 -2.71142578 31.02832031 C-1.79295813 20.68681085 -0.89585879 10.3434904 0 0 Z " fill="#26588F" transform="translate(483,446)"/>
<path d="M0 0 C16.87405341 6.35638028 31.60507784 15.21929789 46 26 C47.42505859 27.00933594 47.42505859 27.00933594 48.87890625 28.0390625 C49.78511719 28.70679687 50.69132813 29.37453125 51.625 30.0625 C52.44226563 30.65160156 53.25953125 31.24070312 54.1015625 31.84765625 C61.39987842 40.12208438 57.68898108 66.00661796 57 77 C55.62570774 89.24241979 52.50462334 101.52453496 48 113 C46.845 112.9175 45.69 112.835 44.5 112.75 C40.20422857 112.71191692 37.4753633 114.00375434 33.859375 116.22265625 C31.43433288 117.23648688 30.45511572 116.86720559 28 116 C26.39111328 114.68408203 26.39111328 114.68408203 24.8203125 113.0078125 C24.22863281 112.39059326 23.63695312 111.77337402 23.02734375 111.13745117 C22.08568359 110.14128784 22.08568359 110.14128784 21.125 109.125 C0.71164719 88.16699268 -24.67591632 72.95595677 -51.99560547 62.80273438 C-54.06166916 61.97530229 -56.02372294 61.02165823 -58 60 C-55.58983683 55.74204507 -52.77255933 51.95529446 -49.75 48.125 C-49.01475098 47.19083252 -49.01475098 47.19083252 -48.26464844 46.23779297 C-45.24533758 42.44626206 -42.13134638 38.90779966 -38.609375 35.5703125 C-36.79340602 33.79842043 -35.15341631 31.92410836 -33.5 30 C-23.59652056 18.55254826 -11.81492507 9.36886636 0 0 Z " fill="#23568E" transform="translate(498,53)"/>
<path d="M0 0 C1.6958686 1.64287271 3.35483453 3.3068005 5 5 C5.58136719 5.59683594 6.16273438 6.19367188 6.76171875 6.80859375 C13.08043376 13.58871594 18.05284903 21.1961724 23 29 C23.59167969 29.93328125 24.18335938 30.8665625 24.79296875 31.828125 C26 34 26 34 26 36 C26.66 36 27.32 36 28 36 C29.60757525 39.66518139 31.21043485 43.33240717 32.8125 47 C33.26431641 48.02996094 33.71613281 49.05992187 34.18164062 50.12109375 C38.86283821 60.85026194 42.90641738 71.70149036 46 83 C46.20334961 83.73831055 46.40669922 84.47662109 46.61621094 85.23730469 C50.05009082 98.43716151 50.39526551 111.632269 50.4375 125.1875 C50.4436734 126.02555176 50.4498468 126.86360352 50.45620728 127.72705078 C50.53230531 143.80713531 48.68897288 159.49176401 44.3125 175 C44.05831299 175.91096436 43.80412598 176.82192871 43.54223633 177.76049805 C38.26533059 195.96353266 29.91842221 216.05940644 18 231 C17.67 231 17.34 231 17 231 C17.01047363 230.19594727 17.02094727 229.39189453 17.03173828 228.56347656 C17.43724173 192.58146144 13.66354793 158.49052333 -1.37939453 125.26635742 C-2.32893422 121.7987819 -1.3068168 119.30865257 0.10546875 116.10546875 C4.29385396 106.2472171 2.4719529 94.75542472 -1.02734375 85.03515625 C-3.30886625 77.91570653 -2.81840519 72.59884429 -1.125 65.5 C-0.75048914 63.86506638 -0.37805744 62.22965495 -0.0078125 60.59375 C0.16089355 59.87896484 0.32959961 59.16417969 0.50341797 58.42773438 C2.13069023 50.47218108 2.18616568 42.63046402 2.18530273 34.54980469 C2.1874809 32.2699899 2.20565267 29.99066646 2.22460938 27.7109375 C2.25185589 20.39290384 2.04344851 13.36951848 0.4309082 6.19042969 C0 4 0 4 0 0 Z " fill="#23568E" transform="translate(564,98)"/>
<path d="M0 0 C9.57 0 19.14 0 29 0 C34.5627863 14.12888543 39.81871951 28.35245178 45 42.625 C49.80179674 55.83245845 54.61094724 69.03579639 59.57421875 82.18359375 C59.92735138 83.11961426 60.28048401 84.05563477 60.64431763 85.02001953 C62.29881458 89.40058863 63.96041831 93.77831919 65.63085938 98.15283203 C66.21624109 99.69690399 66.80153318 101.24100994 67.38671875 102.78515625 C67.65449631 103.47951279 67.92227386 104.17386932 68.19816589 104.88926697 C69.27921981 107.75187413 70 109.91044467 70 113 C62.08 113 54.16 113 46 113 C44.845 109.761875 43.69 106.52375 42.5 103.1875 C42.13455078 102.17067139 41.76910156 101.15384277 41.39257812 100.10620117 C41.10833984 99.30158447 40.82410156 98.49696777 40.53125 97.66796875 C40.09135742 96.43469849 40.09135742 96.43469849 39.64257812 95.17651367 C39 93 39 93 39 90 C23.16 90.33 7.32 90.66 -9 91 C-11.64 98.26 -14.28 105.52 -17 113 C-24.92 113 -32.84 113 -41 113 C-36.37551438 98.85596154 -31.44724959 84.88042496 -26.20596313 70.95449829 C-24.1228597 65.41925331 -22.05223777 59.87933884 -19.98046875 54.33984375 C-19.35521553 52.66930183 -19.35521553 52.66930183 -18.71733093 50.9650116 C-14.5300123 39.76663396 -10.41162406 28.54341287 -6.3125 17.3125 C-5.98677002 16.4203479 -5.66104004 15.5281958 -5.32543945 14.60900879 C-3.54812934 9.74012287 -1.77364237 4.87022576 0 0 Z " fill="#26588F" transform="translate(691,446)"/>
<path d="M0 0 C1.26610107 0.02578125 2.53220215 0.0515625 3.83666992 0.078125 C16.27341141 0.47498456 28.43971597 2.31132173 40.625 4.75 C39.68684205 9.11473359 37.52843217 12.61036524 35.3125 16.4375 C12.07635223 57.66046143 -1.17390653 101.52178257 -4.375 148.75 C-8.005 148.75 -11.635 148.75 -15.375 148.75 C-30.64948824 118.70182641 -39.56389864 87.68545807 -39.56030273 53.8659668 C-39.56247922 51.58427983 -39.58066778 49.30308568 -39.59960938 47.02148438 C-39.63889571 36.67547694 -39.67712802 25.65638405 -36.375 15.75 C-33.075 15.09 -29.775 14.43 -26.375 13.75 C-26.375 13.09 -26.375 12.43 -26.375 11.75 C-25.529375 11.42 -24.68375 11.09 -23.8125 10.75 C-20.39608286 8.76226639 -19.62707115 7.77620116 -17.49609375 4.671875 C-12.60296867 -1.01735631 -7.05928271 -0.29701801 0 0 Z " fill="#23568E" transform="translate(369.375,120.25)"/>
<path d="M0 0 C0.70884338 -0.00045319 1.41768677 -0.00090637 2.14801025 -0.00137329 C19.31976584 0.03058914 35.55448688 2.67003782 52.0625 7.375 C52.0625 8.035 52.0625 8.695 52.0625 9.375 C49.97203761 11.13713329 47.87157376 12.79831421 45.6875 14.4375 C27.11417804 28.43924271 9.69113299 45.50667345 -3.9375 64.375 C-4.93574012 65.70965143 -5.93494756 67.04358482 -6.9375 68.375 C-8.06671875 68.19324219 -8.06671875 68.19324219 -9.21875 68.0078125 C-12.12267102 67.54966962 -15.02870801 67.10902178 -17.93649292 66.67617798 C-19.77902225 66.39885299 -21.61971798 66.10941731 -23.46020508 65.81884766 C-30.98286421 64.73713204 -38.25335093 64.24059702 -45.85546875 64.390625 C-46.69590729 64.4062851 -47.53634583 64.42194519 -48.4022522 64.43807983 C-51.861218 64.51116964 -55.31896327 64.59679873 -58.77661133 64.71777344 C-61.34472129 64.80233982 -63.91135095 64.84919652 -66.48046875 64.890625 C-67.25754684 64.92786682 -68.03462494 64.96510864 -68.83525085 65.003479 C-71.78081111 65.03140151 -74.17176862 65.03467613 -76.47305298 63.05212402 C-77.69549914 61.54552703 -78.82154027 59.96208633 -79.9375 58.375 C-82.5889482 56.97680488 -82.5889482 56.97680488 -84.9375 56.375 C-82.91549274 49.52142671 -80.10551553 43.36001141 -76.75 37.0625 C-76.2638623 36.14404297 -75.77772461 35.22558594 -75.27685547 34.27929688 C-62.59147598 10.61995797 -62.59147598 10.61995797 -53.828125 7.86328125 C-52.28575102 7.45399942 -50.73859202 7.06239018 -49.1875 6.6875 C-48.42695313 6.48833984 -47.66640625 6.28917969 -46.8828125 6.08398438 C-44.57355631 5.48710036 -42.25776503 4.92737341 -39.9375 4.375 C-39.25880859 4.20403809 -38.58011719 4.03307617 -37.88085938 3.85693359 C-25.38871977 0.85097592 -12.81098373 -0.03226805 0 0 Z " fill="#24568E" transform="translate(429.9375,39.625)"/>
<path d="M0 0 C0.99 0.33 1.98 0.66 3 1 C3 1.66 3 2.32 3 3 C3.88171875 3.27457031 4.7634375 3.54914063 5.671875 3.83203125 C8.73250461 4.90612544 11.3944488 6.16370441 14.25 7.6875 C27.06897829 14.15203997 40.17740215 18.58843968 54.12036133 21.95898438 C67.91542453 25.32016916 67.91542453 25.32016916 70.6796875 29.6015625 C71.27136719 31.09816406 71.27136719 31.09816406 71.875 32.625 C76.9293594 43.63818311 84.84648412 49.61026283 96 54 C100.52755524 55.42975429 105.06035826 56.03422153 109.76953125 56.54296875 C110.96412964 56.67288208 110.96412964 56.67288208 112.18286133 56.80541992 C112.78251709 56.86963135 113.38217285 56.93384277 114 57 C114.35191406 58.22332031 114.70382812 59.44664062 115.06640625 60.70703125 C120.06385885 77.85979983 125.68890361 94.31516308 134.03271484 110.14599609 C135.73441444 113.40765858 137.36205801 116.70595701 139 120 C128.95917193 119.05275207 119.8025856 116.01552611 110.375 112.5625 C109.58762451 112.2742334 108.80024902 111.9859668 107.98901367 111.68896484 C99.90972278 108.67703352 92.12472089 105.14798143 84.4375 101.25 C83.81037109 100.93417969 83.18324219 100.61835938 82.53710938 100.29296875 C81.02378785 99.53053195 79.51174845 98.76555113 78 98 C78 97.34 78 96.68 78 96 C77.31035156 95.76152344 76.62070312 95.52304687 75.91015625 95.27734375 C72.44800707 93.75771585 69.48939411 91.76251499 66.4375 89.5625 C65.8297876 89.12728027 65.2220752 88.69206055 64.59594727 88.24365234 C59.24929151 84.3343145 54.41535971 80.0068471 49.62109375 75.4453125 C47.05618686 72.98833946 47.05618686 72.98833946 44.359375 70.8984375 C40.75390113 67.99734429 37.9787886 64.52460952 35 61 C34.24589844 60.14535156 33.49179687 59.29070312 32.71484375 58.41015625 C21.20575635 45.11360361 0 18.58001595 0 0 Z " fill="#23568E" transform="translate(257,284)"/>
<path d="M0 0 C6.67760161 5.42778313 11.22975633 12.2866757 12.19140625 20.78125 C4.96301053 23.35406882 -2.31512196 25.14820592 -9.80859375 26.78125 C-10.07671875 26.11738281 -10.34484375 25.45351563 -10.62109375 24.76953125 C-12.96523147 19.4875104 -15.09480641 15.34894149 -20.296875 12.5546875 C-26.71223782 10.57919475 -33.95693215 10.55046209 -40.12109375 13.2109375 C-43.0433673 14.91842873 -44.36066771 15.72451724 -45.80859375 18.78125 C-46.3354038 21.90113616 -46.5970941 24.70506114 -45.80859375 27.78125 C-42.16125072 32.13568689 -38.49556644 34.02161712 -33.19921875 35.71875 C-32.47297302 35.96616943 -31.74672729 36.21358887 -30.99847412 36.46850586 C-28.68961707 37.25341942 -26.37495429 38.0187934 -24.05859375 38.78125 C5.11653096 48.47353353 5.11653096 48.47353353 11.62890625 60.90625 C14.8051377 68.94266319 14.1110326 78.3785193 11.28515625 86.4375 C6.92512771 95.78041829 -0.06539381 101.32240361 -9.63671875 104.8125 C-24.76073939 109.00069033 -41.84643262 108.50310155 -55.83203125 101.203125 C-64.13130141 96.263613 -70.57600173 90.06459119 -73.80859375 80.78125 C-74.18428923 78.45436185 -74.52455006 76.12109502 -74.80859375 73.78125 C-71.39560366 72.9119119 -67.97775567 72.06345776 -64.55859375 71.21875 C-63.10646484 70.8484668 -63.10646484 70.8484668 -61.625 70.47070312 C-60.69042969 70.24189453 -59.75585938 70.01308594 -58.79296875 69.77734375 C-57.93413086 69.56263428 -57.07529297 69.3479248 -56.19042969 69.12670898 C-53.68802916 68.76376344 -52.15627632 68.86538675 -49.80859375 69.78125 C-49.0078125 71.63671875 -49.0078125 71.63671875 -48.49609375 73.96875 C-46.95010588 79.24527382 -44.3936417 81.85989116 -39.80859375 84.78125 C-33.57829986 87.89639694 -26.04659031 87.48772198 -19.37109375 86.03125 C-16.51908134 84.64002444 -14.81417653 83.23251784 -12.80859375 80.78125 C-11.56588001 77.05310878 -11.15642671 73.64875222 -11.80859375 69.78125 C-18.22166185 60.96328136 -31.22472725 58.48735773 -41.078125 55.3125 C-53.46067881 51.18016582 -63.10887568 45.96785567 -69.74609375 34.40625 C-72.51148474 24.97138661 -70.6821649 15.3142045 -66.12890625 6.73046875 C-60.72820764 -1.24275198 -52.15165097 -5.61977058 -43.01660156 -7.80639648 C-28.38677099 -10.53857073 -12.53526106 -8.0952592 0 0 Z " fill="#25588E" transform="translate(173.80859375,453.21875)"/>
<path d="M0 0 C21.78 0 43.56 0 66 0 C66 6.93 66 13.86 66 21 C52.14 21 38.28 21 24 21 C24 29.25 24 37.5 24 46 C36.21 46 48.42 46 61 46 C61 52.93 61 59.86 61 67 C48.79 67 36.58 67 24 67 C24 75.25 24 83.5 24 92 C37.86 92 51.72 92 66 92 C66 98.93 66 105.86 66 113 C44.22 113 22.44 113 0 113 C0 75.71 0 38.42 0 0 Z " fill="#285A90" transform="translate(239,446)"/>
<path d="M0 0 C21.45 0 42.9 0 65 0 C65 6.6 65 13.2 65 20 C51.47 20 37.94 20 24 20 C24 28.25 24 36.5 24 45 C36.21 45 48.42 45 61 45 C61 51.93 61 58.86 61 66 C48.79 66 36.58 66 24 66 C24 74.25 24 82.5 24 91 C37.53 91 51.06 91 65 91 C65 97.93 65 104.86 65 112 C43.55 112 22.1 112 0 112 C0 75.04 0 38.08 0 0 Z " fill="#26588E" transform="translate(359,447)"/>
<path d="M0 0 C2.70072147 1.28119682 5.07903834 2.68685163 7.4765625 4.46875 C45.08461922 31.9871757 85.27398542 42.1432144 131 46 C105.32454905 65.92999372 65.31576058 70.08582285 34 69 C33.25637207 69.01281006 32.51274414 69.02562012 31.74658203 69.03881836 C28.85869378 68.95264805 26.65099799 68.65967944 24.57202148 66.55297852 C23.19621748 64.49393942 22.089557 62.41135538 21 60.1875 C20.37399902 58.98275024 20.37399902 58.98275024 19.73535156 57.75366211 C10.72161282 39.98877069 2.58844278 19.8596041 0 0 Z " fill="#24578E" transform="translate(387,339)"/>
<path d="M0 0 C5.13023386 2.57873702 8.95118546 6.30409668 12.20703125 10.984375 C13.8698452 16.18066859 14.4291757 20.53065021 12.03515625 25.58203125 C9.30137614 29.91521364 6.93885308 32.90663035 2.20703125 35.109375 C-5.0275437 35.99100779 -13.48571341 36.27010521 -19.79296875 32.109375 C-24.59191639 27.85950604 -28.18439377 22.52999601 -29.07421875 16.06640625 C-29.27994844 11.49749268 -28.66874447 8.63451943 -25.79296875 5.109375 C-17.98316512 -2.46041102 -10.32114439 -3.83201858 0 0 Z " fill="#26588F" transform="translate(371.79296875,287.890625)"/>
<path d="M0 0 C0 3.60834163 -0.72416858 4.25254282 -2.875 7.0625 C-6.39813119 11.93017309 -9.3539188 16.99625946 -12.25 22.25 C-12.67394043 23.01836182 -13.09788086 23.78672363 -13.53466797 24.57836914 C-13.94088379 25.32078857 -14.34709961 26.06320801 -14.765625 26.828125 C-15.15838623 27.540896 -15.55114746 28.25366699 -15.95581055 28.98803711 C-17.14099626 31.18914349 -17.14099626 31.18914349 -18.34765625 34.39453125 C-20.61096106 37.96338305 -23.29268885 38.48393128 -27.1875 39.4375 C-36.47689637 42.11527382 -42.20831445 46.52240249 -47 55 C-47.24234375 55.82628906 -47.4846875 56.65257812 -47.734375 57.50390625 C-49.47529952 60.93739628 -51.330962 61.44774209 -54.875 62.8125 C-56.44894531 63.44091797 -56.44894531 63.44091797 -58.0546875 64.08203125 C-61 65 -61 65 -65 65 C-65 65.66 -65 66.32 -65 67 C-69.29 68.98 -73.58 70.96 -78 73 C-69.28579363 51.21448408 -48.4160712 32.69851412 -30 19 C-29.15953125 18.36449219 -28.3190625 17.72898437 -27.453125 17.07421875 C-22.35325456 13.35199787 -16.98439473 10.17611891 -11.5 7.0625 C-10.79246582 6.66015137 -10.08493164 6.25780273 -9.35595703 5.84326172 C-4.25047488 3 -4.25047488 3 -2 3 C-2 2.34 -2 1.68 -2 1 C-1.34 0.67 -0.68 0.34 0 0 Z " fill="#285A91" transform="translate(351,57)"/>
<path d="M0 0 C4.28160639 2.52826118 7.64803919 5.01780714 9.51171875 9.76171875 C10.38581511 16.05521257 10.42083511 20.61679422 6.82421875 26.01171875 C2.8173669 30.06236133 -0.74676851 32.14272367 -6.48828125 32.26171875 C-12.02672732 32.1807999 -15.52237267 30.71105535 -19.42578125 26.69921875 C-23.01289565 21.19043592 -23.55901045 16.75808252 -22.703125 10.34375 C-21.76621083 6.20050736 -19.88237224 4.15827544 -16.4140625 1.828125 C-11.00907816 -1.2407168 -5.84989837 -2.65713517 0 0 Z " fill="#305F94" transform="translate(669.17578125,579.98828125)"/>
<path d="M0 0 C4.46604825 2.58297567 7.68263382 5.27660875 9.78125 10.0859375 C10.51555289 15.64675209 10.50549082 20.39604226 8.28125 25.5859375 C3.9064356 29.9607519 -0.54463465 32.26665685 -6.78125 32.5859375 C-11.34944996 32.33389888 -14.81898249 31.203859 -18.21875 28.0859375 C-21.84569775 23.42885074 -22.98123995 18.39078851 -22.73828125 12.55078125 C-21.59596094 7.13120145 -17.97387153 3.60388044 -13.90625 0.0859375 C-9.17406563 -1.67487529 -4.72737559 -1.94754558 0 0 Z " fill="#2E5E93" transform="translate(497.21875,579.9140625)"/>
<path d="M0 0 C3.95681505 2.74649515 6.15007885 5.13773654 7.6875 9.75 C7.78058544 11.41458673 7.81746185 13.08281997 7.8125 14.75 C7.81636719 16.049375 7.81636719 16.049375 7.8203125 17.375 C7.6875 19.75 7.6875 19.75 6.6875 22.75 C6.0275 22.75 5.3675 22.75 4.6875 22.75 C4.54828125 23.67039062 4.54828125 23.67039062 4.40625 24.609375 C3.50193855 27.30265042 2.69391725 27.74679137 0.1875 29 C-5.57790336 31.61406281 -10.69753121 31.68744164 -16.625 29.5625 C-20.5573173 26.91047205 -22.81148186 24.25305441 -24.3125 19.75 C-24.9731067 14.68284634 -25.46933221 9.83229799 -22.92578125 5.25390625 C-16.73833321 -2.06097266 -8.70587043 -5.20111744 0 0 Z " fill="#2B5C92" transform="translate(161.3125,581.25)"/>
<path d="M0 0 C2.12623464 2.12623464 2.62966556 3.33642551 3.60400391 6.12670898 C3.90416412 6.97776718 4.20432434 7.82882538 4.51358032 8.70567322 C4.83136444 9.62651199 5.14914856 10.54735077 5.4765625 11.49609375 C5.80667328 12.44057877 6.13678406 13.38506378 6.47689819 14.35816956 C7.17393748 16.3570222 7.86808506 18.35688522 8.55957031 20.35766602 C9.62039415 23.4241859 10.69230405 26.48666316 11.765625 29.54882812 C12.44077154 31.48935127 13.11527246 33.43009918 13.7890625 35.37109375 C14.11089508 36.28990829 14.43272766 37.20872284 14.76431274 38.15538025 C15.05816864 39.00959061 15.35202454 39.86380096 15.65478516 40.74389648 C15.91522614 41.49509262 16.17566711 42.24628876 16.44400024 43.02024841 C17 45 17 45 17 48 C6.11 48 -4.78 48 -16 48 C-10.66666667 32 -5.33333333 16 0 0 Z " fill="#F8FAFB" transform="translate(705,468)"/>
<path d="M0 0 C2.31 0 4.62 0 7 0 C7.83806616 2.93622464 8.67062444 5.87382067 9.5 8.8125 C9.73847656 9.64587891 9.97695312 10.47925781 10.22265625 11.33789062 C10.44824219 12.14033203 10.67382812 12.94277344 10.90625 13.76953125 C11.11572266 14.50792236 11.32519531 15.24631348 11.54101562 16.00708008 C12 18 12 18 12 21 C12.66 21 13.32 21 14 21 C14.16435547 20.09121094 14.16435547 20.09121094 14.33203125 19.1640625 C17.48197343 2.51802657 17.48197343 2.51802657 20 0 C21.98 0 23.96 0 26 0 C29.465 10.89 29.465 10.89 33 22 C34.60441041 15.13482919 34.60441041 15.13482919 36.20092773 8.26782227 C36.40145752 7.41760498 36.6019873 6.5673877 36.80859375 5.69140625 C37.01282959 4.81685791 37.21706543 3.94230957 37.42749023 3.04125977 C38 1 38 1 39 0 C40.99958364 -0.04080783 43.00045254 -0.04254356 45 0 C44.53773375 7.33947302 43.10469089 14.02866275 41 21.0625 C40.72671875 22.01060547 40.4534375 22.95871094 40.171875 23.93554688 C38.14941109 30.85058891 38.14941109 30.85058891 37 32 C34.32941149 32.14115161 31.67567762 32.04247107 29 32 C28.16112944 29.56427941 27.32873471 27.12666783 26.5 24.6875 C26.26152344 23.99720703 26.02304687 23.30691406 25.77734375 22.59570312 C24.76791737 19.61068511 24 17.17341086 24 14 C23.34 14 22.68 14 22 14 C21.73445313 15.13179687 21.46890625 16.26359375 21.1953125 17.4296875 C20.8389156 18.91154832 20.48212424 20.3933143 20.125 21.875 C19.95097656 22.62136719 19.77695312 23.36773438 19.59765625 24.13671875 C18.2265625 29.7734375 18.2265625 29.7734375 16 32 C13.31160615 32.26991906 10.70858064 32.08737357 8 32 C6.85750172 27.76500802 5.71825348 23.52915943 4.58203125 19.29248047 C4.1949072 17.85083311 3.80689038 16.40942518 3.41796875 14.96826172 C2.85963754 12.89873301 2.30450502 10.8283692 1.75 8.7578125 C1.24726563 6.88826904 1.24726563 6.88826904 0.734375 4.98095703 C0 2 0 2 0 0 Z " fill="#2D5E93" transform="translate(246,580)"/>
<path d="M0 0 C8 0 8 0 10.00976562 1.74414062 C10.70102539 2.93813477 10.70102539 2.93813477 11.40625 4.15625 C11.921875 5.01347656 12.4375 5.87070312 12.96875 6.75390625 C13.4740625 7.66011719 13.979375 8.56632813 14.5 9.5 C15.03625 10.40621094 15.5725 11.31242188 16.125 12.24609375 C17.44304138 14.4820568 18.72509293 16.7391648 20 19 C20.33 12.73 20.66 6.46 21 0 C23.31 0 25.62 0 28 0 C28 10.56 28 21.12 28 32 C20 32 20 32 18.00610352 30.17993164 C17.55162842 29.34840576 17.09715332 28.51687988 16.62890625 27.66015625 C16.11779297 26.76232422 15.60667969 25.86449219 15.08007812 24.93945312 C14.32887695 23.51536133 14.32887695 23.51536133 13.5625 22.0625 C12.52223286 20.19916435 11.48187329 18.33588029 10.44140625 16.47265625 C9.99482666 15.64000244 9.54824707 14.80734863 9.08813477 13.94946289 C8.14823452 12.05730099 8.14823452 12.05730099 7 11 C6.67 17.6 6.34 24.2 6 31 C4.02 31 2.04 31 0 31 C0 20.77 0 10.54 0 0 Z " fill="#2A5B91" transform="translate(694,580)"/>
<path d="M0 0 C16 0 16 0 21 4 C22.4783226 6.95664519 22.06032783 9.74229737 22 13 C21.34 13 20.68 13 20 13 C19.67 13.99 19.34 14.98 19 16 C18.34 16.33 17.68 16.66 17 17 C18.35176901 21.05530702 20.37272553 24.02527366 22.9765625 27.3515625 C24 29 24 29 24 32 C20.76953125 32.40234375 20.76953125 32.40234375 17 32 C15.12589539 29.77275833 13.97691204 28.09101847 12.6875 25.5625 C10.58578857 21.08385192 10.58578857 21.08385192 7 18 C7.01160156 18.92683594 7.02320313 19.85367188 7.03515625 20.80859375 C7.04417969 22.00613281 7.05320312 23.20367188 7.0625 24.4375 C7.07410156 25.63246094 7.08570313 26.82742188 7.09765625 28.05859375 C7 31 7 31 6 32 C4.02 32 2.04 32 0 32 C0 21.44 0 10.88 0 0 Z " fill="#2F5F94" transform="translate(347,580)"/>
<path d="M0 0 C2.97 0 5.94 0 9 0 C11.90320329 6.78270504 14.67501334 13.60998091 17.3125 20.5 C17.57885254 21.18191406 17.84520508 21.86382813 18.11962891 22.56640625 C19.40769396 25.96967202 20 28.30539559 20 32 C18.02 32 16.04 32 14 32 C13.34 29.69 12.68 27.38 12 25 C7.38 25 2.76 25 -2 25 C-2.33 26.98 -2.66 28.96 -3 31 C-5.31 31 -7.62 31 -10 31 C-9.38325946 26.52015936 -8.24908172 22.55246027 -6.6875 18.3125 C-6.2440625 17.09949219 -5.800625 15.88648438 -5.34375 14.63671875 C-4.9003125 13.43660156 -4.456875 12.23648438 -4 11 C-3.22828812 8.87531889 -2.45735658 6.75035406 -1.6875 4.625 C-1.12542394 3.08317872 -0.56310022 1.54144753 0 0 Z " fill="#2B5C92" transform="translate(313,580)"/>
<path d="M0 0 C3.52597416 2.19393948 5.49178218 4.15969207 7 8 C8.31608874 19.84479866 8.31608874 19.84479866 5.25 24.625 C4.5075 25.40875 3.765 26.1925 3 27 C2.401875 27.639375 1.80375 28.27875 1.1875 28.9375 C-2.22016473 30.59265144 -4.42077188 30.02263661 -8 29 C-12.25713912 24.74286088 -14.29013569 20.68740697 -14.375 14.6875 C-14.28088715 9.27239122 -13.22162151 6.32617746 -10 2 C-6.2626144 -0.4915904 -4.42668417 -0.45793285 0 0 Z " fill="#295A91" transform="translate(545,186)"/>
<path d="M0 0 C0.680625 -0.00257813 1.36125 -0.00515625 2.0625 -0.0078125 C4 0.125 4 0.125 7 1.125 C7 1.785 7 2.445 7 3.125 C7.639375 3.3725 8.27875 3.62 8.9375 3.875 C11 5.125 11 5.125 11.75 7.25 C11.87375 8.178125 11.87375 8.178125 12 9.125 C8.6875 9.8125 8.6875 9.8125 5 10.125 C3.375 8.6875 3.375 8.6875 2 7.125 C-0.62570704 6.87430087 -0.62570704 6.87430087 -3 7.125 C-3.66 8.445 -4.32 9.765 -5 11.125 C-4.34773438 11.29515625 -3.69546875 11.4653125 -3.0234375 11.640625 C2.35385265 13.13167301 6.6159348 14.64023022 11 18.125 C12.56935594 21.26371188 12.35201103 23.66355822 12 27.125 C9.45862841 30.28454305 7.85377341 31.84040886 4 33.125 C-1.58635614 33.49131844 -5.20724794 33.35732115 -10 30.125 C-11.9375 27.5625 -11.9375 27.5625 -13 25.125 C-12.67 24.465 -12.34 23.805 -12 23.125 C-8.9375 22.5 -8.9375 22.5 -6 22.125 C-5.649375 22.764375 -5.29875 23.40375 -4.9375 24.0625 C-2.22815794 26.94663832 0.15858911 26.8350822 4 27.125 C4 25.475 4 23.825 4 22.125 C3.18015625 21.82207031 2.3603125 21.51914062 1.515625 21.20703125 C0.43796875 20.78808594 -0.6396875 20.36914062 -1.75 19.9375 C-2.81734375 19.53144531 -3.8846875 19.12539063 -4.984375 18.70703125 C-8.35120746 16.94075256 -9.92986064 15.28675678 -12 12.125 C-12.5625 9.125 -12.5625 9.125 -12 6.125 C-8.4071901 1.75536633 -5.62835916 -0.02131954 0 0 Z " fill="#326296" transform="translate(112,578.875)"/>
<path d="M0 0 C3.69209157 1.64092959 5.88862435 3.55512394 8 7 C8 7.66 8 8.32 8 9 C5.69 9.33 3.38 9.66 1 10 C0.67 9.01 0.34 8.02 0 7 C-2.31 7 -4.62 7 -7 7 C-7.33 8.32 -7.66 9.64 -8 11 C-7.09636719 11.31453125 -6.19273437 11.6290625 -5.26171875 11.953125 C-4.08222656 12.38109375 -2.90273438 12.8090625 -1.6875 13.25 C0.07013672 13.87648438 0.07013672 13.87648438 1.86328125 14.515625 C5.07330852 16.03469146 6.34440709 16.90955991 8 20 C8.64563369 22.75470375 8.61813415 25.23824467 8 28 C4.39023692 31.80488541 1.39486098 32.90853371 -3.8125 33.25 C-7.87850273 33.1752573 -10.60582878 32.36802644 -14 30 C-15.875 26.8125 -15.875 26.8125 -17 24 C-14.69 23.34 -12.38 22.68 -10 22 C-9.649375 22.66 -9.29875 23.32 -8.9375 24 C-7.03442858 26.41103961 -7.03442858 26.41103961 -3.3125 26.25 C-2.219375 26.1675 -1.12625 26.085 0 26 C-0.07621488 23.55045938 -0.07621488 23.55045938 -1 21 C-3.42268902 19.62845737 -3.42268902 19.62845737 -6.375 18.875 C-12.78881237 16.96270238 -12.78881237 16.96270238 -15 14 C-15.82745636 10.13853697 -16.25686099 7.77058297 -15 4 C-9.77366985 0.26690703 -6.39148811 -0.72161963 0 0 Z " fill="#316195" transform="translate(454,579)"/>
<path d="M0 0 C5.1368454 0.4428315 8.04890329 2.73640329 11.625 6.3125 C11.625 7.3025 11.625 8.2925 11.625 9.3125 C9.645 9.6425 7.665 9.9725 5.625 10.3125 C4.965 9.3225 4.305 8.3325 3.625 7.3125 C1.66138136 6.73501197 1.66138136 6.73501197 -0.5 6.625 C-2.418125 6.4703125 -2.418125 6.4703125 -4.375 6.3125 C-4.375 8.2925 -4.375 10.2725 -4.375 12.3125 C1.565 13.7975 1.565 13.7975 7.625 15.3125 C7.625 15.9725 7.625 16.6325 7.625 17.3125 C8.615 17.6425 9.605 17.9725 10.625 18.3125 C12.22743984 21.51737969 12.25659396 24.84559837 11.625 28.3125 C8.14193895 31.88722055 5.29952349 33.46199952 0.375 33.5625 C-3.89071578 33.51441625 -6.75357331 32.69734197 -10.375 30.3125 C-12.375 27.3125 -12.375 27.3125 -12.375 23.3125 C-9.625 22.5625 -9.625 22.5625 -6.375 22.3125 C-5.02067325 23.62450404 -3.68766518 24.95881404 -2.375 26.3125 C0.792832 26.64698259 0.792832 26.64698259 3.625 26.3125 C3.54500845 23.85524371 3.54500845 23.85524371 2.625 21.3125 C0.2279772 20.04995899 0.2279772 20.04995899 -2.6875 19.375 C-9.00016181 17.33918709 -9.00016181 17.33918709 -11.125 14.375 C-12.53271844 10.92608981 -12.77773751 9.73167269 -11.375 6.3125 C-8.375 1.76077586 -8.375 1.76077586 -5.5625 0.5 C-3.707659 0.34101363 -1.85371289 0.17164008 0 0 Z " fill="#316195" transform="translate(749.375,578.6875)"/>
<path d="M0 0 C1.98 0 3.96 0 6 0 C6.01981934 0.61520508 6.03963867 1.23041016 6.06005859 1.86425781 C6.15549727 4.65992542 6.26509955 7.4548651 6.375 10.25 C6.4059375 11.21808594 6.436875 12.18617188 6.46875 13.18359375 C6.50742187 14.11816406 6.54609375 15.05273438 6.5859375 16.015625 C6.6173584 16.87446289 6.6487793 17.73330078 6.68115234 18.61816406 C7.01716204 21.1282028 7.74191728 22.81932328 9 25 C11.64 25 14.28 25 17 25 C17.33 16.75 17.66 8.5 18 0 C20.31 0 22.62 0 25 0 C25.1753878 3.85358472 25.28121462 7.70613439 25.375 11.5625 C25.45041016 13.19155273 25.45041016 13.19155273 25.52734375 14.85351562 C25.62462407 20.18771985 25.66007948 23.98481454 22.1640625 28.21484375 C19.06861503 31.35308321 16.62800265 31.94852437 12.1875 32.3125 C7.83034762 32.26435467 5.36555823 30.80463186 2 28 C-0.29755922 24.55366118 -0.23643976 23.28931609 -0.1953125 19.23828125 C-0.18886719 18.12001953 -0.18242188 17.00175781 -0.17578125 15.84960938 C-0.15902344 14.68236328 -0.14226563 13.51511719 -0.125 12.3125 C-0.11597656 11.13365234 -0.10695313 9.95480469 -0.09765625 8.74023438 C-0.07406423 5.82661974 -0.0411454 2.91341108 0 0 Z " fill="#285990" transform="translate(552,580)"/>
<path d="M0 0 C6.27 0 12.54 0 19 0 C19 1.65 19 3.3 19 5 C18 6 18 6 15.49609375 6.09765625 C13.98208984 6.08025391 13.98208984 6.08025391 12.4375 6.0625 C11.42558594 6.05347656 10.41367187 6.04445313 9.37109375 6.03515625 C8.19740234 6.01775391 8.19740234 6.01775391 7 6 C7 8.31 7 10.62 7 13 C10.3 13 13.6 13 17 13 C17 14.98 17 16.96 17 19 C13.7 19 10.4 19 7 19 C7 21.31 7 23.62 7 26 C10.96 26 14.92 26 19 26 C19 27.65 19 29.3 19 31 C17.1144747 32.8855253 14.42231169 32.13246689 11.91796875 32.13671875 C11.12003906 32.13285156 10.32210938 32.12898437 9.5 32.125 C8.70207031 32.12886719 7.90414063 32.13273438 7.08203125 32.13671875 C1.12660767 32.12660767 1.12660767 32.12660767 0 31 C-0.08790975 28.70848583 -0.10694038 26.41427476 -0.09765625 24.12109375 C-0.0962413 23.4344313 -0.09482635 22.74776886 -0.09336853 22.04029846 C-0.08775479 19.83932199 -0.07520007 17.63844591 -0.0625 15.4375 C-0.05748676 13.94856917 -0.05292355 12.45963676 -0.04882812 10.97070312 C-0.03863021 7.31373195 -0.01905779 3.65697883 0 0 Z " fill="#366497" transform="translate(385,580)"/>
<path d="M0 0 C6.27 0 12.54 0 19 0 C19 1.65 19 3.3 19 5 C18 6 18 6 15.49609375 6.09765625 C13.98208984 6.08025391 13.98208984 6.08025391 12.4375 6.0625 C11.42558594 6.05347656 10.41367188 6.04445313 9.37109375 6.03515625 C8.19740234 6.01775391 8.19740234 6.01775391 7 6 C7 8.31 7 10.62 7 13 C10.3 13 13.6 13 17 13 C17 14.98 17 16.96 17 19 C13.7 19 10.4 19 7 19 C7.01160156 19.85464844 7.02320313 20.70929687 7.03515625 21.58984375 C7.04417969 22.69457031 7.05320313 23.79929687 7.0625 24.9375 C7.07410156 26.03964844 7.08570313 27.14179687 7.09765625 28.27734375 C7 31 7 31 6 32 C4.02 32 2.04 32 0 32 C0 21.44 0 10.88 0 0 Z " fill="#326195" transform="translate(184,580)"/>
<path d="M0 0 C3.5625 1.5625 3.5625 1.5625 6 4 C6.77050171 8.23775941 6.52623577 10.18342725 4.1875 13.8125 C0.47383623 17.52616377 -1.78632062 18.31132658 -6.9375 18.375 C-7.97777344 18.40335938 -9.01804687 18.43171875 -10.08984375 18.4609375 C-13.70047963 17.88905155 -14.83383044 16.90011877 -17 14 C-17.79952969 8.96296296 -17.79952969 8.96296296 -17 6 C-12.37043679 0.24127504 -6.97862581 -0.81826433 0 0 Z " fill="#2A5B91" transform="translate(336,106)"/>
<path d="M0 0 C2.81013765 2.23369916 3.82147318 3.86258173 4.37890625 7.4140625 C4.55948165 11.36342135 4.51925798 14.11293428 2.5 17.5625 C-0.95696695 19.55025599 -4.01747792 20.19793847 -8 20 C-11.26210104 18.72352568 -12.5558282 17.72682657 -14.375 14.75 C-15.19967712 11.12142066 -14.90190715 8.60762859 -14 5 C-10.11003632 -0.96461098 -6.85183597 -1.68290708 0 0 Z " fill="#F8F9FB" transform="translate(158,586)"/>
<path d="M0 0 C1.33804688 0.04060547 1.33804688 0.04060547 2.703125 0.08203125 C3.37859375 0.11683594 4.0540625 0.15164063 4.75 0.1875 C4.75 0.8475 4.75 1.5075 4.75 2.1875 C5.41 2.1875 6.07 2.1875 6.75 2.1875 C9.22361688 5.89792531 9.29607278 8.88612675 8.75 13.1875 C7.4982675 16.06648475 6.45330872 17.63490029 4 19.5625 C0.60887913 20.50447802 -1.85991203 20.03502199 -5.25 19.1875 C-7.5681362 17.29638889 -8.91914015 15.84921969 -10.25 13.1875 C-10.26953125 10.91015625 -10.26953125 10.91015625 -10.0625 8.25 C-10.00707031 7.37472656 -9.95164062 6.49945312 -9.89453125 5.59765625 C-9.25 3.1875 -9.25 3.1875 -7.52734375 1.3828125 C-4.80022279 -0.04857518 -3.06019094 -0.12079701 0 0 Z " fill="#FAFBFC" transform="translate(663.25,585.8125)"/>
<path d="M0 0 C1.95710686 3.37782146 3.27774472 7.13412522 2.6953125 11.046875 C1.54809271 14.06316075 0.10971618 15.91049469 -2.375 17.9375 C-5.29767783 19.12048865 -6.89006336 19.54423891 -10 19 C-12.64971542 17.19337585 -14.55620529 15.88758942 -16 13 C-16.42074378 9.94059163 -16.47999423 7.0540292 -16 4 C-11.05058787 -2.42085898 -7.2118502 -2.40395007 0 0 Z " fill="#FBFCFD" transform="translate(498,587)"/>
<path d="M0 0 C6.93 0 13.86 0 21 0 C21 1.65 21 3.3 21 5 C18.69 5 16.38 5 14 5 C14 13.91 14 22.82 14 32 C11.69 32 9.38 32 7 32 C7 23.42 7 14.84 7 6 C4.69 6 2.38 6 0 6 C0 4.02 0 2.04 0 0 Z " fill="#2C5D93" transform="translate(214,580)"/>
<path d="M0 0 C6.93 0 13.86 0 21 0 C21 1.65 21 3.3 21 5 C18.69 5 16.38 5 14 5 C14.00523682 5.78238037 14.01047363 6.56476074 14.01586914 7.37084961 C14.03657106 10.89305833 14.04963838 14.4152543 14.0625 17.9375 C14.07087891 19.16919922 14.07925781 20.40089844 14.08789062 21.66992188 C14.09111328 22.83974609 14.09433594 24.00957031 14.09765625 25.21484375 C14.10289307 26.29886475 14.10812988 27.38288574 14.11352539 28.49975586 C14 31 14 31 13 32 C11.02 32 9.04 32 7 32 C7 23.42 7 14.84 7 6 C4.69 6 2.38 6 0 6 C0 4.02 0 2.04 0 0 Z " fill="#316095" transform="translate(590,580)"/>
<path d="M0 0 C2.31 0 4.62 0 7 0 C7 8.58 7 17.16 7 26 C10.3 26 13.6 26 17 26 C17 27.65 17 29.3 17 31 C11.39 31 5.78 31 0 31 C0 20.77 0 10.54 0 0 Z " fill="#295A91" transform="translate(522,580)"/>
<path d="M0 0 C2.31 0 4.62 0 7 0 C7 10.23 7 20.46 7 31 C4.69 31 2.38 31 0 31 C0 20.77 0 10.54 0 0 Z " fill="#2A5C92" transform="translate(625,580)"/>
<path d="M0 0 C2.87579981 4.31369972 4 7.80734761 4 13 C1.03 13 -1.94 13 -5 13 C-4.55005243 11.20620902 -4.08975857 9.41501072 -3.625 7.625 C-3.36976563 6.62726562 -3.11453125 5.62953125 -2.8515625 4.6015625 C-2 2 -2 2 0 0 Z " fill="#E3E9F0" transform="translate(318,587)"/>
<path d="M0 0 C3.375 -0.1875 3.375 -0.1875 7 0 C9 3 9 3 8.75 5.125 C8 7 8 7 6 8 C4.00039988 8.039992 1.99952758 8.04346799 0 8 C0 5.36 0 2.72 0 0 Z " fill="#EAEEF4" transform="translate(354,585)"/>
</svg>
